<svg xmlns="http://www.w3.org/2000/svg" width="1440" height="820" viewBox="0 0 1440 820"><defs><linearGradient id="hero" x1="0" y1="0" x2="1" y2="1"><stop stop-color="#0b0b09"/><stop offset=".55" stop-color="#2a1b10"/><stop offset="1" stop-color="#0a0a09"/></linearGradient><radialGradient id="plate"><stop stop-color="#f8f4e9"/><stop offset="1" stop-color="#d7cbb8"/></radialGradient></defs><rect width="1440" height="820" fill="#f5f6f7"/><rect x="30" y="30" width="1380" height="760" rx="24" fill="#fff" stroke="#dfe4e7"/><rect x="54" y="54" width="1332" height="520" rx="18" fill="url(#hero)"/><text x="92" y="102" fill="#d9a441" font-family="Georgia" font-size="20" font-weight="700">✦ SAVORA</text><text x="720" y="100" text-anchor="middle" fill="#ddd6cc" font-family="Arial" font-size="13">Home　 Menu　 About　 Gallery　 Contact</text><rect x="1210" y="72" width="125" height="38" rx="19" fill="#e2ae4b"/><text x="1272" y="96" text-anchor="middle" fill="#261b0d" font-family="Arial" font-size="11" font-weight="700">Book a Table</text><text x="105" y="215" fill="#e1b14d" font-family="Arial" font-size="13" letter-spacing="3">WELCOME TO SAVORA</text><text x="105" y="275" fill="#fff" font-family="Georgia" font-size="57" font-weight="700">Good Food</text><text x="105" y="335" fill="#e2b34e" font-family="Georgia" font-size="57">Good Mood</text><text x="105" y="378" fill="#d6d0c7" font-family="Arial" font-size="16">Experience the perfect blend of taste, ambience and hospitality.</text><rect x="105" y="410" width="140" height="42" rx="21" fill="#e2ad47"/><text x="175" y="436" text-anchor="middle" fill="#261b0d" font-family="Arial" font-size="12" font-weight="700">Explore Menu →</text><ellipse cx="1010" cy="360" rx="270" ry="150" fill="#11100d" opacity=".6"/><ellipse cx="1010" cy="350" rx="205" ry="125" fill="url(#plate)"/><ellipse cx="1010" cy="350" rx="145" ry="78" fill="#744127"/><circle cx="930" cy="325" r="28" fill="#739348"/><circle cx="1090" cy="365" r="31" fill="#bd7b35"/><circle cx="1025" cy="295" r="22" fill="#5e7e3b"/><circle cx="1060" cy="420" r="16" fill="#9b2e20"/><rect x="54" y="594" width="1332" height="170" rx="18" fill="#faf9f6"/><g font-family="Arial"><text x="220" y="645" text-anchor="middle" fill="#202020" font-size="15" font-weight="700">♨ Fresh Ingredients</text><text x="220" y="670" text-anchor="middle" fill="#777" font-size="11">Always fresh &amp; local</text><text x="720" y="645" text-anchor="middle" fill="#202020" font-size="15" font-weight="700">♨ Expert Chefs</text><text x="720" y="670" text-anchor="middle" fill="#777" font-size="11">World class cuisine</text><text x="1220" y="645" text-anchor="middle" fill="#202020" font-size="15" font-weight="700">♨ Cozy Ambience</text><text x="1220" y="670" text-anchor="middle" fill="#777" font-size="11">Perfect for every occasion</text></g><rect x="1070" y="250" width="185" height="340" rx="24" fill="#111" stroke="#777" stroke-width="5"/><rect x="1082" y="270" width="161" height="285" rx="15" fill="url(#hero)"/><text x="1100" y="305" fill="#e2b34e" font-family="Georgia" font-size="11">✦ SAVORA</text><text x="1100" y="355" fill="#fff" font-family="Georgia" font-size="25">Good Food</text><text x="1100" y="382" fill="#e2b34e" font-family="Georgia" font-size="25">Good Mood</text><circle cx="1160" cy="470" r="58" fill="#d9cbb6"/><ellipse cx="1160" cy="470" rx="43" ry="24" fill="#75422b"/></svg>